# xmcd
#
# Track frame offsets:
#	150
#	18864
#	38004
#	59701
#	72378
#	92799
#	108808
#	127611
#	144858
#	159130
#
# Disc length: 2327 seconds
#
# Revision: 0
# Processed by: cddbd v1.5.2PL0 Copyright (c) Steve Scherf et al.
# Submitted via: EasyCDDAExtractor 12.0.4.1
#
DISCID=7309150a
DTITLE=ลาบานูน - นมสด
DYEAR=1900
DGENRE=Pop
TTITLE0=ยาม
TTITLE1=หนักใจ
TTITLE2=Help Me Please
TTITLE3=ไม่ใช้อย่างงั้น
TTITLE4=เพ้อ
TTITLE5=อมยิ้ม
TTITLE6=ความรู้สึก
TTITLE7=รักผมเหอะ
TTITLE8=นมสด
TTITLE9=รอ
EXTD=
EXTT0=
EXTT1=
EXTT2=
EXTT3=
EXTT4=
EXTT5=
EXTT6=
EXTT7=
EXTT8=
EXTT9=
PLAYORDER=
